# xmcd
#
# Track frame offsets:
#	150
#	19707
#	39226
#	57980
#	77711
#	94849
#	111768
#	131165
#	145090
#	165202
#	177953
#	199004
#	214655
#	236595
#
# Disc length: 3382 seconds
#
# Revision: 1
# Processed by: cddbd v1.5.2PL0 Copyright (c) Steve Scherf et al.
# Submitted via: audiograbber 1.83.01
#
DISCID=b40d340e
DTITLE=Chris Gill - Tell Me How
DYEAR=2002
DGENRE=Country
TTITLE0=On the Road
TTITLE1=Don't Walk Away
TTITLE2=One Step at a Time
TTITLE3=A Miracle
TTITLE4=Read My Eyes
TTITLE5=Shake It
TTITLE6=Lonely Nights at Home
TTITLE7=A Honky Tonk Woman and a Honky Tonk Man
TTITLE8=Tell Me How
TTITLE9=It's a Honky Tonk World
TTITLE10=Tonight She Needs a Friend
TTITLE11=A Saturday Night
TTITLE12=You Are My World
TTITLE13='Til Death Do Us Part
EXTD=
EXTT0=
EXTT1=
EXTT2=
EXTT3=
EXTT4=
EXTT5=
EXTT6=
EXTT7=
EXTT8=
EXTT9=
EXTT10=
EXTT11=
EXTT12=
EXTT13=
PLAYORDER=
